<svg width="25" height="25" viewBox="0 0 25 25" fill="none" xmlns="http://www.w3.org/2000/svg">
<g clip-path="url(#clip0_2_77)">
<path d="M21.875 1.5625C19.1406 1.5625 18.75 3.90625 18.75 4.6875C18.75 5.46875 18.75 6.25 19.5312 6.25C20.3125 6.25 20.3125 5.46875 20.3125 4.6875C20.3125 3.90625 20.7031 3.125 21.875 3.125C23.0469 3.125 23.4375 3.90625 23.4375 4.6875C23.4375 8.59375 18.75 10.9375 16.4062 10.9375H8.59375C6.25 10.9375 1.5625 8.59375 1.5625 4.6875C1.5625 3.90625 1.95312 3.125 3.125 3.125C4.29688 3.125 4.6875 3.90625 4.6875 4.6875C4.6875 5.46875 4.6875 6.25 5.46875 6.25C6.25 6.25 6.25 5.46875 6.25 4.6875C6.25 3.90625 5.85938 1.5625 3.125 1.5625C1.17188 1.5625 0 3.125 0 4.6875C0 9.375 5.46875 12.5 8.59375 12.5H16.4062C19.5312 12.5 25 9.375 25 4.6875C25 3.125 23.8281 1.5625 21.875 1.5625Z" fill="#E6B85C"/>
<path d="M19.5312 1.5625C19.5312 0.780859 19.5312 0 18.75 0C17.9688 0 7.03125 0 6.25 0C5.46875 0 5.46875 0.780859 5.46875 1.5625C5.46875 14.8438 10.9375 13.2812 10.9375 14.8438V16.4062C10.9375 17.9688 8.59375 17.1875 8.59375 18.75H16.4062C16.4062 17.1875 14.0625 17.9688 14.0625 16.4062V14.8438C14.0625 13.2812 19.5312 14.8438 19.5312 1.5625Z" fill="#FFCC66"/>
<path d="M19.5312 20.3125H5.46875C5.0375 20.3125 4.6875 20.6621 4.6875 21.0938V24.2188C4.6875 24.65 5.0375 25 5.46875 25H19.5312C19.9625 25 20.3125 24.65 20.3125 24.2188V21.0938C20.3125 20.6621 19.9625 20.3125 19.5312 20.3125Z" fill="#666666"/>
<path d="M16.4062 21.875H8.59375V23.4375H16.4062V21.875Z" fill="#E6E6E6"/>
<path fill-rule="evenodd" clip-rule="evenodd" d="M16.4062 18.75H8.59375C8.59375 18.75 6.25 18.75 6.25 20.3125H18.75C18.75 18.75 16.4062 18.75 16.4062 18.75ZM10.9375 16.4062H14.0625C14.4937 16.4062 14.8438 16.0562 14.8438 15.625C14.8438 15.1934 14.4937 14.8438 14.0625 14.8438H10.9375C10.5063 14.8438 10.1562 15.1934 10.1562 15.625C10.1562 16.0562 10.5063 16.4062 10.9375 16.4062Z" fill="#E6B85C"/>
</g>
<defs>
<clipPath id="clip0_2_77">
<rect width="25" height="25" fill="white"/>
</clipPath>
</defs>
</svg>
