<svg width="16" height="16" viewBox="0 0 16 16" fill="none" xmlns="http://www.w3.org/2000/svg">
<g clip-path="url(#clip0_55_420)">
<path d="M8.50207 8.97081C10.9754 8.97081 12.9875 6.95866 12.9875 4.48541C12.9875 2.01216 10.9754 0 8.50207 0C6.02879 0 4.01666 2.01216 4.01666 4.48541C4.01666 6.95866 6.02882 8.97081 8.50207 8.97081ZM8.03332 2.53022V2.47709C8.03332 2.21822 8.24319 2.00834 8.50207 2.00834C8.76094 2.00834 8.97082 2.21822 8.97082 2.47709V2.51041H9.00416C9.26304 2.51041 9.47291 2.72028 9.47291 2.97916C9.47291 3.23803 9.26304 3.44791 9.00416 3.44791H8.25101C8.09419 3.44791 7.96663 3.57547 7.96663 3.73231C7.96663 3.88912 8.09419 4.01669 8.25101 4.01669H8.75313C9.42691 4.01669 9.97504 4.56481 9.97504 5.23859C9.97504 5.838 9.54107 6.33763 8.97085 6.44066V6.49378C8.97085 6.75266 8.76097 6.96253 8.5021 6.96253C8.24322 6.96253 8.03335 6.75266 8.03335 6.49378V6.46047H8.00001C7.74113 6.46047 7.53126 6.25059 7.53126 5.99172C7.53126 5.73284 7.74113 5.52297 8.00001 5.52297H8.75313C8.90998 5.52297 9.03754 5.39541 9.03754 5.23859C9.03754 5.08175 8.90998 4.95419 8.75313 4.95419H8.25107C7.57732 4.95419 7.02919 4.40606 7.02919 3.73231C7.02919 3.13287 7.46316 2.63325 8.03332 2.53022Z" fill="#E41600"/>
<path d="M14.7366 2.89606L15.7408 2.39397C15.9724 2.27822 16.0662 1.99665 15.9504 1.76509C15.8346 1.53353 15.5531 1.43968 15.3215 1.55543L14.3174 2.05753C14.0858 2.17328 13.9919 2.45484 14.1077 2.6864C14.2239 2.91884 14.506 3.01131 14.7366 2.89606Z" fill="#E41600"/>
<path d="M15.7408 6.57702L14.7366 6.07492C14.5052 5.95927 14.2235 6.05302 14.1077 6.28458C13.9919 6.51614 14.0858 6.79771 14.3174 6.91346L15.3215 7.41555C15.5528 7.53111 15.8345 7.43774 15.9504 7.20589C16.0662 6.97433 15.9724 6.69277 15.7408 6.57702Z" fill="#E41600"/>
<path d="M2.68681 2.05756L1.68262 1.55543C1.45103 1.43968 1.16953 1.53353 1.05375 1.76509C0.937964 1.99665 1.03181 2.27822 1.26337 2.39397L2.26756 2.89606C2.49821 3.01134 2.78021 2.91887 2.89643 2.6864C3.01221 2.45484 2.91837 2.17331 2.68681 2.05756Z" fill="#E41600"/>
<path d="M2.26756 6.07492L1.26337 6.57702C1.03181 6.69277 0.937964 6.97433 1.05375 7.20589C1.16968 7.43774 1.45137 7.53111 1.68262 7.41555L2.68681 6.91346C2.91837 6.79771 3.01221 6.51614 2.89643 6.28458C2.78065 6.05302 2.499 5.95927 2.26756 6.07492Z" fill="#E41600"/>
<path d="M12.6825 10.2894L10.4154 12.5566C10.1369 12.8348 9.76716 12.9879 9.37416 12.9879H7.67297C7.42056 12.9879 7.20338 12.7939 7.1915 12.5418C7.17881 12.2726 7.39331 12.0504 7.65972 12.0504H9.17772C9.73231 12.0504 10.1819 11.6008 10.1819 11.0463C10.1819 10.4917 9.73231 10.0421 9.17772 10.0421H6.12047C4.69844 10.0421 4.24788 11.24 4.17319 11.5483H3.44788V14.9963H9.91175C10.4946 14.9963 11.0428 14.7692 11.4553 14.3568L14.8585 10.9535C15.0366 10.7754 15.0474 10.479 14.8562 10.2883C14.233 9.66669 13.2657 9.70619 12.6825 10.2894Z" fill="#E41600"/>
<path d="M2.04169 10.5439H0.46875C0.209875 10.5439 0 10.7538 0 11.0127V15.5314C0 15.7903 0.209875 16.0002 0.46875 16.0002H2.04166C2.30053 16.0002 2.51041 15.7903 2.51041 15.5314V11.0127C2.51044 10.7538 2.30056 10.5439 2.04169 10.5439Z" fill="#E41600"/>
</g>
<defs>
<clipPath id="clip0_55_420">
<rect width="16" height="16" fill="white"/>
</clipPath>
</defs>
</svg>
