<svg width="16" height="16" viewBox="0 0 16 16" fill="none" xmlns="http://www.w3.org/2000/svg">
<path d="M6.04878 8V16H1.95122C1.30556 16 0.780488 15.4618 0.780488 14.8V7.9596C0.906537 7.986 1.03707 8 1.17073 8H6.04878ZM6.82927 8V16H9.17073V8H6.82927ZM14.8293 8H9.95122V16H14.0488C14.6944 16 15.2195 15.4618 15.2195 14.8V7.9596C15.0935 7.986 14.9629 8 14.8293 8ZM16 4.4V6C16 6.6618 15.4749 7.2 14.8293 7.2H1.17073C0.525073 7.2 0 6.6618 0 6V4.4C0 3.7382 0.525073 3.2 1.17073 3.2H4.88176C4.63571 2.8652 4.4878 2.4504 4.4878 2C4.4878 0.8972 5.36312 0 6.43902 0C7.07766 0 7.6439 0.3176 8 0.8052C8.35629 0.3176 8.92234 0 9.56098 0C10.6369 0 11.5122 0.8972 11.5122 2C11.5122 2.4504 11.3643 2.8652 11.1182 3.2H14.8293C15.4749 3.2 16 3.7382 16 4.4ZM8.39024 2V3.2H9.56098C10.2066 3.2 10.7317 2.6618 10.7317 2C10.7317 1.3382 10.2066 0.8 9.56098 0.8C8.91532 0.8 8.39024 1.3382 8.39024 2ZM6.43902 3.2H7.60976V2C7.60976 1.3382 7.08468 0.8 6.43902 0.8C5.79337 0.8 5.26829 1.3382 5.26829 2C5.26829 2.6618 5.79337 3.2 6.43902 3.2Z" fill="#E41600"/>
</svg>
