<svg width="16" height="16" viewBox="0 0 16 16" fill="none" xmlns="http://www.w3.org/2000/svg">
<g clip-path="url(#clip0_55_386)">
<path d="M10.8438 5.6875C8.00059 5.6875 5.6875 8.00059 5.6875 10.8438C5.6875 13.6869 8.00059 16 10.8438 16C13.6869 16 16 13.6869 16 10.8438C16 8.00059 13.6869 5.6875 10.8438 5.6875ZM10.8438 10.375C11.6192 10.375 12.25 11.0058 12.25 11.7812C12.25 12.3916 11.8569 12.907 11.3125 13.1012V14.125H10.375V13.1012C9.83056 12.907 9.4375 12.3916 9.4375 11.7812H10.375C10.375 12.0399 10.5851 12.25 10.8438 12.25C11.1024 12.25 11.3125 12.0399 11.3125 11.7812C11.3125 11.5226 11.1024 11.3125 10.8438 11.3125C10.0683 11.3125 9.4375 10.6817 9.4375 9.90625C9.4375 9.29594 9.83056 8.7805 10.375 8.58634V7.5625H11.3125V8.58634C11.8569 8.7805 12.25 9.29594 12.25 9.90625H11.3125C11.3125 9.64762 11.1024 9.4375 10.8438 9.4375C10.5851 9.4375 10.375 9.64762 10.375 9.90625C10.375 10.1649 10.5851 10.375 10.8438 10.375Z" fill="#E41700"/>
<path d="M5.21875 5.6875C8.11 5.6875 10.375 4.452 10.375 2.875C10.375 1.298 8.11 0 5.21875 0C2.3275 0 0 1.298 0 2.875C0 4.452 2.3275 5.6875 5.21875 5.6875Z" fill="#E41700"/>
<path d="M0 10.5488V11.3126C0 12.8896 2.3275 14.1251 5.21875 14.1251C5.38275 14.1251 5.54166 14.11 5.70312 14.1021C5.34356 13.5368 5.07541 12.9095 4.9175 12.2388C2.82672 12.1811 1.01131 11.5386 0 10.5488Z" fill="#E41700"/>
<path d="M4.77253 11.2887C4.76178 11.1413 4.75 10.994 4.75 10.8439C4.75 10.3552 4.81403 9.88227 4.92322 9.42658C2.82984 9.36986 1.01222 8.72705 0 7.73633V8.50011C0 9.99345 2.10194 11.167 4.77253 11.2887Z" fill="#E41700"/>
<path d="M5.21875 8.50011C5.21925 8.50011 5.21966 8.50005 5.22019 8.50005C5.52934 7.76117 5.97875 7.09511 6.53684 6.53705C6.1135 6.59055 5.676 6.62511 5.21875 6.62511C2.99322 6.62511 1.06019 5.96145 0 4.92383V5.68761C0 7.26461 2.3275 8.50011 5.21875 8.50011Z" fill="#E41700"/>
</g>
<defs>
<clipPath id="clip0_55_386">
<rect width="16" height="16" fill="white"/>
</clipPath>
</defs>
</svg>
