<svg width="16" height="16" viewBox="0 0 16 16" fill="none" xmlns="http://www.w3.org/2000/svg">
<g clip-path="url(#clip0_67_1183)">
<path d="M14.9688 1.08301L8.93542 0.0191634C8.25683 -0.100493 7.6097 0.352632 7.49005 1.03123L7.43295 1.35507C8.30548 1.46257 9.04264 2.09113 9.27473 2.95723L9.64345 4.33332C9.83867 4.24866 10.06 4.21816 10.2852 4.25788C10.7126 4.33326 11.0405 4.64085 11.1627 5.02794C11.4099 4.70598 11.8232 4.52907 12.2506 4.60444C12.8624 4.71232 13.2708 5.29566 13.163 5.90738C12.9286 7.23657 11.5022 8.30491 10.8253 8.74432L11.8588 12.6013C11.9142 12.808 11.9373 13.0159 11.9322 13.2197L12.8017 13.373C13.4803 13.4927 14.1274 13.0396 14.2471 12.361L15.9808 2.52844C16.1005 1.84979 15.6474 1.20266 14.9688 1.08301Z" fill="#E41600"/>
<path d="M8.37085 3.19948C8.22148 2.64204 7.71738 2.27438 7.16648 2.27441C7.0596 2.27441 6.95092 2.28826 6.84276 2.31723L0.925072 3.90285C0.259478 4.0812 -0.135522 4.76535 0.0428221 5.43095L2.62692 15.075C2.77629 15.6324 3.28038 16 3.83129 16C3.93817 16 4.04685 15.9862 4.15498 15.9572L10.0727 14.3716C10.7383 14.1932 11.1333 13.5091 10.9549 12.8435L8.37085 3.19948ZM3.76595 9.7917C3.6656 9.70341 3.62813 9.56351 3.67088 9.43691L4.57576 6.7576C4.65145 6.53348 4.93088 6.4586 5.10851 6.61485L7.23182 8.48279C7.33217 8.57107 7.36963 8.71098 7.32688 8.83757L6.42201 11.5169C6.34632 11.741 6.06688 11.8159 5.88926 11.6596L3.76595 9.7917Z" fill="#E41600"/>
</g>
<defs>
<clipPath id="clip0_67_1183">
<rect width="16" height="16" fill="white"/>
</clipPath>
</defs>
</svg>
