<svg width="16" height="16" viewBox="0 0 16 16" fill="none" xmlns="http://www.w3.org/2000/svg">
<g clip-path="url(#clip0_54_236)">
<path d="M14.4348 0C13.5717 0 12.8696 0.702125 12.8696 1.56522C12.8696 2.2445 13.3071 2.81822 13.913 3.03428V7.30434H12.8696V6.43478C12.8696 2.88653 9.98303 0 6.43478 0C2.88653 0 0 2.88653 0 6.43478V14.4348C0 15.2979 0.702125 16 1.56522 16H11.3043C12.1674 16 12.8696 15.2979 12.8696 14.4348V8.34781H14.4348C14.7228 8.34781 14.9565 8.11428 14.9565 7.82606V3.03428C15.5625 2.81822 16 2.24453 16 1.56522C16 0.702125 15.2979 0 14.4348 0ZM2.99116 4.52122C3.50747 3.06522 4.89128 2.08697 6.43478 2.08697C7.97828 2.08697 9.36209 3.06522 9.87841 4.52122C9.97453 4.79281 9.83256 5.09103 9.56081 5.18731C9.29144 5.28372 8.99191 5.14322 8.89472 4.87006C8.52581 3.8295 7.53737 3.13044 6.43478 3.13044C5.33222 3.13044 4.34375 3.8295 3.97484 4.87009C3.87841 5.1415 3.58012 5.28431 3.30875 5.18734C3.037 5.09103 2.89503 4.79281 2.99116 4.52122ZM6.95653 4.69566C6.95653 4.98378 6.72294 5.21741 6.43478 5.21741C6.14666 5.21741 5.91303 4.98381 5.91303 4.69566C5.91303 4.4075 6.14662 4.17391 6.43478 4.17391C6.72291 4.17391 6.95653 4.4075 6.95653 4.69566ZM9.04347 13.913H3.82609C3.53806 13.913 3.30434 13.6795 3.30434 13.3913C3.30434 13.1031 3.53806 12.8695 3.82609 12.8695H9.04347C9.3315 12.8695 9.56522 13.1031 9.56522 13.3913C9.56522 13.6795 9.3315 13.913 9.04347 13.913ZM10.6087 11.3043C10.6087 11.5926 10.375 11.8261 10.0869 11.8261H2.78262C2.49459 11.8261 2.26087 11.5926 2.26087 11.3043V6.78259C2.26087 6.49437 2.49459 6.26084 2.78262 6.26084H10.087C10.375 6.26084 10.6087 6.49437 10.6087 6.78259V11.3043H10.6087Z" fill="#E41600"/>
<path d="M7.13045 7.30469H5.73914V10.7829H7.13045V7.30469Z" fill="#E41600"/>
<path d="M4.69566 7.30469H3.30435V10.7829H4.69566V7.30469Z" fill="#E41600"/>
<path d="M9.56523 7.30469H8.17392V10.7829H9.56523V7.30469Z" fill="#E41600"/>
</g>
<defs>
<clipPath id="clip0_54_236">
<rect width="16" height="16" fill="white"/>
</clipPath>
</defs>
</svg>
