<svg width="16" height="16" viewBox="0 0 16 16" fill="none" xmlns="http://www.w3.org/2000/svg">
<path d="M14.8089 14.1767C14.3767 12.9005 13.8389 11.2812 11.7501 11.2812H10.619C10.9567 11.0111 11.2631 10.7037 11.5047 10.3438H11.7501C13.0424 10.3438 14.0938 9.29228 14.0938 8C14.0938 7.32147 14.0938 6.80347 14.0938 6.125C14.0938 2.765 11.3601 0 8.00008 0C4.56352 0 1.85992 2.85669 1.9068 6.20419C1.90623 7.23644 1.90633 6.86112 1.90633 8C1.90633 9.29228 2.9578 10.3438 4.25008 10.3438H4.49548C4.73701 10.7037 5.04342 11.0111 5.38114 11.2812H4.25008C2.1613 11.2812 1.62342 12.9005 1.1913 14.1763C0.885733 15.0781 1.59395 16 2.53714 16H13.463C14.4094 16 15.1135 15.0747 14.8089 14.1767ZM3.8287 5.65625H3.31258C3.16214 5.65625 3.01989 5.68622 2.88389 5.73019C3.09933 2.91041 5.4108 0.9375 8.00008 0.9375C10.7121 0.9375 12.9367 3.07463 13.1366 5.73647C12.9948 5.68822 12.8455 5.65625 12.6876 5.65625H12.1715C11.9348 3.55266 10.1659 1.875 8.00008 1.875C5.83423 1.875 4.06536 3.55266 3.8287 5.65625ZM8.00008 14.7498L6.12489 12.2188H9.87523L8.00008 14.7498ZM8.00008 11.2812C6.19098 11.2812 4.71883 9.80909 4.71883 8V7.53125H6.12508C6.89445 7.53125 7.57252 7.15359 8.00008 6.57928C8.42764 7.15359 9.1057 7.53125 9.87508 7.53125H11.2813V8C11.2813 8.50516 11.157 8.97834 10.9522 9.40625H8.93758C8.67848 9.40625 8.46883 9.61591 8.46883 9.875C8.46883 10.1341 8.67848 10.3406 8.93758 10.3406H10.2892C9.69736 10.9187 8.89064 11.2812 8.00008 11.2812Z" fill="#E41600"/>
</svg>
