<svg width="16" height="16" viewBox="0 0 16 16" fill="none" xmlns="http://www.w3.org/2000/svg">
<g clip-path="url(#clip0_55_394)">
<path d="M14.909 13.0909H12.3635C10.7595 13.0909 9.45451 11.7859 9.45451 10.1819C9.45451 8.57788 10.7595 7.27287 12.3635 7.27287H14.909C15.11 7.27287 15.2726 7.11022 15.2726 6.90923V5.81833C15.2726 5.0558 14.6811 4.43566 13.9338 4.37553L11.8455 0.727861C11.6519 0.390503 11.3394 0.149382 10.9655 0.0492583C10.5933 -0.0501832 10.2042 0.00204321 9.87106 0.195915L2.71198 4.3638H1.45462C0.652444 4.3638 9.15527e-05 5.01612 9.15527e-05 5.81833V14.5455C9.15527e-05 15.3476 0.65241 16 1.45462 16H13.8181C14.6203 16 15.2726 15.3477 15.2726 14.5455V13.4546C15.2726 13.2536 15.11 13.0909 14.909 13.0909ZM12.2964 2.97987L13.0888 4.3638H9.91936L12.2964 2.97987ZM4.15741 4.3638L10.2372 0.824439C10.4016 0.728202 10.5937 0.702634 10.7773 0.751656C10.963 0.80136 11.1178 0.921392 11.2141 1.08935L11.2148 1.09068L5.59299 4.3638H4.15741Z" fill="#E41600"/>
<path d="M14.909 8H12.3635C11.1604 8 10.1818 8.97867 10.1818 10.1818C10.1818 11.3849 11.1604 12.3636 12.3635 12.3636H14.909C15.5105 12.3636 15.9999 11.8742 15.9999 11.2727V9.09089C15.9999 8.48933 15.5105 8 14.909 8ZM12.3635 10.909C11.9626 10.909 11.6363 10.5827 11.6363 10.1818C11.6363 9.78088 11.9626 9.45453 12.3635 9.45453C12.7644 9.45453 13.0908 9.78088 13.0908 10.1818C13.0908 10.5827 12.7645 10.909 12.3635 10.909Z" fill="#E41600"/>
</g>
<defs>
<clipPath id="clip0_55_394">
<rect width="16" height="16" fill="white"/>
</clipPath>
</defs>
</svg>
