<svg width="79" height="31" viewBox="0 0 79 31" fill="none" xmlns="http://www.w3.org/2000/svg">
<path d="M37.3615 15.1452V24.232H34.4443V1.79155H42.1813C43.1048 1.77248 44.023 1.93434 44.8829 2.26778C45.7428 2.60121 46.5273 3.09963 47.1913 3.73425C47.8619 4.33035 48.3957 5.0614 48.7566 5.87827C49.1176 6.69514 49.2974 7.5789 49.2841 8.47016C49.3033 9.36619 49.1262 10.2557 48.765 11.0778C48.4037 11.8999 47.8669 12.635 47.1913 13.2329C45.8384 14.5078 44.1684 15.1446 42.1813 15.1434H37.3615V15.1452ZM37.3615 4.55431V12.3878H42.2537C42.7901 12.4035 43.3238 12.3084 43.8208 12.1086C44.3179 11.9089 44.7672 11.6088 45.1402 11.2276C45.5112 10.8711 45.8061 10.4448 46.0074 9.97381C46.2088 9.50281 46.3126 8.99669 46.3126 8.48538C46.3126 7.97407 46.2088 7.46795 46.0074 6.99695C45.8061 6.52595 45.5112 6.09963 45.1402 5.74321C44.7719 5.35396 44.3241 5.04651 43.8265 4.84124C43.3289 4.63596 42.7928 4.53755 42.2537 4.55252H37.3615V4.55431Z" fill="#5F6368"/>
<path d="M56.0064 8.37695C58.1626 8.37695 59.8646 8.94634 61.1125 10.0851C62.3603 11.2239 62.9836 12.7852 62.9824 14.7691V24.2319H60.192V22.1012H60.0652C58.8572 23.8559 57.2506 24.7333 55.2454 24.7333C53.5337 24.7333 52.1017 24.2319 50.9493 23.2293C50.3963 22.7691 49.9541 22.1927 49.6551 21.5422C49.356 20.8917 49.2076 20.1835 49.2207 19.4692C49.2207 17.8804 49.8283 16.6169 51.0435 15.6787C52.2587 14.7404 53.881 14.2701 55.9104 14.2677C57.6426 14.2677 59.0692 14.5811 60.1902 15.2078V14.5489C60.1935 14.0619 60.0871 13.5803 59.8787 13.1389C59.6703 12.6976 59.3651 12.3077 58.9852 11.9974C58.2138 11.3096 57.2084 10.9343 56.1695 10.9463C54.54 10.9463 53.2505 11.6255 52.301 12.9839L49.7317 11.385C51.145 9.37964 53.2366 8.37695 56.0064 8.37695ZM52.2321 19.5318C52.2302 19.8987 52.317 20.2608 52.4853 20.5878C52.6536 20.9148 52.8985 21.1974 53.1997 21.4119C53.8449 21.9134 54.6457 22.1791 55.4665 22.1639C56.6975 22.1619 57.8775 21.6777 58.7479 20.8174C59.7143 19.9186 60.1974 18.864 60.1974 17.6536C59.2878 16.9374 58.0195 16.5793 56.3924 16.5793C55.2074 16.5793 54.2192 16.8616 53.428 17.4262C52.629 17.9992 52.2321 18.6957 52.2321 19.5318Z" fill="#5F6368"/>
<path d="M79 8.87793L69.259 30.9997H66.2476L69.8624 23.2593L63.4572 8.87793H66.6281L71.2576 19.9075H71.321L75.8237 8.87793H79Z" fill="#5F6368"/>
<path d="M25.5731 13.1858C25.5742 12.3073 25.4991 11.4303 25.3485 10.5645H13.0454V15.5295H20.092C19.9478 16.3225 19.6426 17.0785 19.1948 17.7518C18.747 18.4251 18.1659 19.0018 17.4865 19.4472V22.6701H21.692C24.1544 20.4266 25.5731 17.1088 25.5731 13.1858Z" fill="#4285F4"/>
<path d="M13.0454 25.7837C16.566 25.7837 19.5303 24.6414 21.6919 22.6718L17.4864 19.4489C16.3159 20.2332 14.8084 20.6808 13.0454 20.6808C9.64255 20.6808 6.75431 18.414 5.72151 15.3594H1.38916V18.6808C2.475 20.8159 4.14001 22.6108 6.1983 23.8651C8.2566 25.1194 10.6272 25.7836 13.0454 25.7837Z" fill="#34A853"/>
<path d="M5.72151 15.3596C5.1755 13.7589 5.1755 12.0256 5.72151 10.4249V7.10352H1.38916C0.475721 8.89968 0 10.882 0 12.8922C0 14.9025 0.475721 16.8848 1.38916 18.681L5.72151 15.3596Z" fill="#FBBC04"/>
<path d="M13.0454 5.10381C14.9058 5.07377 16.7036 5.7684 18.0499 7.03756L21.7735 3.35806C19.4124 1.16661 16.2844 -0.0365384 13.0454 0.000845816C10.6272 0.000954724 8.2566 0.665224 6.1983 1.91949C4.14001 3.17376 2.475 4.96866 1.38916 7.10381L5.72151 10.4252C6.75431 7.3706 9.64254 5.10381 13.0454 5.10381Z" fill="#EA4335"/>
</svg>
