<svg width="52" height="31" viewBox="0 0 52 31" fill="none" xmlns="http://www.w3.org/2000/svg">
<path d="M52 15.5C52 24.0051 45.04 31 36.4 31C27.84 31 20.8 24.0051 20.8 15.5C20.8 6.99487 27.76 0 36.32 0C45.04 0 52 6.99487 52 15.5Z" fill="#F9B50B"/>
<path d="M31.12 15.5795C31.12 14.4667 30.96 13.3538 30.8 12.3205H21.2C21.28 11.7641 21.44 11.2872 21.6 10.6513H30.16C30 10.0949 29.76 9.53846 29.52 8.98205H22.24C22.48 8.42564 22.8 7.94872 23.12 7.31282H28.64C28.32 6.75641 27.92 6.2 27.44 5.64359H24.4C24.88 5.08718 25.36 4.61026 26 4.05385C23.28 1.51026 19.6 0 15.52 0C7.04 0.238462 0 6.99487 0 15.5C0 24.0051 6.96 31 15.6 31C19.68 31 23.28 29.4103 26.08 26.9462C26.64 26.4692 27.12 25.9128 27.68 25.2769H24.48C24.08 24.8 23.68 24.2436 23.36 23.6872H28.8C29.12 23.2103 29.44 22.6538 29.68 22.018H22.4C22.16 21.541 21.92 20.9846 21.76 20.3487H30.32C30.8 18.9179 31.12 17.3282 31.12 15.5795Z" fill="#C8191C"/>
<path d="M21.12 19.4736L21.36 18.0428C21.28 18.0428 21.12 18.1223 20.96 18.1223C20.4 18.1223 20.32 17.8043 20.4 17.6454L20.88 14.7838H21.76L22 13.1941H21.2L21.36 12.2402H19.68C19.68 12.2402 18.72 17.6454 18.72 18.2813C18.72 19.2351 19.28 19.712 20.08 19.712C20.56 19.712 20.96 19.5531 21.12 19.4736Z" fill="white"/>
<path d="M21.6799 16.8511C21.6799 19.1562 23.2799 19.7126 24.5599 19.7126C25.7599 19.7126 26.3199 19.4742 26.3199 19.4742L26.6399 17.8844C26.6399 17.8844 25.7599 18.2819 24.8799 18.2819C23.0399 18.2819 23.3599 16.9306 23.3599 16.9306H26.7199C26.7199 16.9306 26.9599 15.8972 26.9599 15.4203C26.9599 14.387 26.3999 13.0357 24.5599 13.0357C22.9599 12.9562 21.6799 14.7844 21.6799 16.8511ZM24.5599 14.4665C25.4399 14.4665 25.2799 15.4998 25.2799 15.5793H23.4399C23.5199 15.4998 23.6799 14.4665 24.5599 14.4665Z" fill="white"/>
<path d="M35.04 19.4745L35.36 17.6463C35.36 17.6463 34.56 18.0437 33.92 18.0437C32.8 18.0437 32.24 17.1694 32.24 16.136C32.24 14.1489 33.2 13.1155 34.4 13.1155C35.2 13.1155 35.92 13.5924 35.92 13.5924L36.16 11.8437C36.16 11.8437 35.2 11.4463 34.24 11.4463C32.32 11.4463 30.48 13.1155 30.48 16.2155C30.48 18.2822 31.44 19.6335 33.44 19.6335C34.16 19.713 35.04 19.4745 35.04 19.4745Z" fill="white"/>
<path d="M12.08 12.9561C10.96 12.9561 10.08 13.274 10.08 13.274L9.83996 14.7048C9.83996 14.7048 10.56 14.3868 11.68 14.3868C12.24 14.3868 12.72 14.4663 12.72 14.9432C12.72 15.2612 12.64 15.3407 12.64 15.3407H11.92C10.48 15.3407 8.95996 15.8971 8.95996 17.8048C8.95996 19.315 9.91996 19.633 10.56 19.633C11.68 19.633 12.24 18.9176 12.32 18.9176L12.24 19.5535H13.6L14.24 15.0227C14.24 13.0355 12.64 12.9561 12.08 12.9561ZM12.4 16.6125C12.4 16.8509 12.24 18.2022 11.28 18.2022C10.8 18.2022 10.64 17.8048 10.64 17.5663C10.64 17.1689 10.88 16.6125 12.16 16.6125C12.32 16.6125 12.4 16.6125 12.4 16.6125Z" fill="white"/>
<path d="M15.8401 19.6334C16.2401 19.6334 18.3201 19.7129 18.3201 17.4872C18.3201 15.4205 16.3201 15.818 16.3201 15.0231C16.3201 14.6257 16.6401 14.4667 17.2001 14.4667C17.4401 14.4667 18.3201 14.5462 18.3201 14.5462L18.5601 13.0359C18.5601 13.0359 18.0001 12.877 16.9601 12.877C15.7601 12.877 14.4801 13.3539 14.4801 15.0231C14.4801 16.9308 16.5601 16.7718 16.5601 17.4872C16.5601 17.9641 16.0001 18.0436 15.6001 18.0436C14.8801 18.0436 14.0801 17.8052 14.0801 17.8052L13.8401 19.3154C14.0001 19.4744 14.4801 19.6334 15.8401 19.6334Z" fill="white"/>
<path d="M48.8001 11.6846L48.4801 13.9102C48.4801 13.9102 47.8401 13.1153 46.8801 13.1153C45.3601 13.1153 44.0801 14.9435 44.0801 17.0897C44.0801 18.441 44.7201 19.7923 46.1601 19.7923C47.1201 19.7923 47.7601 19.1564 47.7601 19.1564L47.6801 19.7128H49.3601L50.5601 11.8435L48.8001 11.6846ZM48.0001 15.9769C48.0001 16.8512 47.6001 18.0435 46.6401 18.0435C46.0801 18.0435 45.7601 17.5666 45.7601 16.6923C45.7601 15.341 46.3201 14.5461 47.1201 14.5461C47.6801 14.6256 48.0001 15.023 48.0001 15.9769Z" fill="white"/>
<path d="M3.03994 19.5538L3.99994 13.6718L4.15994 19.5538H5.27994L7.43994 13.6718L6.55994 19.5538H8.31994L9.67994 11.6846H6.95994L5.27994 16.5333L5.19994 11.6846H2.79994L1.43994 19.5538H3.03994Z" fill="white"/>
<path d="M28.64 19.5537C29.12 16.8511 29.2 14.6255 30.4 15.0229C30.56 13.9896 30.8 13.5127 30.96 13.1152H30.64C29.92 13.1152 29.28 14.0691 29.28 14.0691L29.44 13.1947H27.84L26.8 19.5537H28.64Z" fill="white"/>
<path d="M38.88 12.9561C37.76 12.9561 36.88 13.274 36.88 13.274L36.64 14.7048C36.64 14.7048 37.36 14.3868 38.48 14.3868C39.04 14.3868 39.52 14.4663 39.52 14.9432C39.52 15.2612 39.44 15.3407 39.44 15.3407H38.72C37.28 15.3407 35.76 15.8971 35.76 17.8048C35.76 19.315 36.72 19.633 37.36 19.633C38.48 19.633 39.04 18.9176 39.12 18.9176L39.04 19.5535H40.56L41.2 15.0227C41.2 13.0355 39.44 12.9561 38.88 12.9561ZM39.28 16.6125C39.28 16.8509 39.12 18.2022 38.16 18.2022C37.68 18.2022 37.52 17.8048 37.52 17.5663C37.52 17.1689 37.76 16.6125 39.04 16.6125C39.2 16.6125 39.2 16.6125 39.28 16.6125Z" fill="white"/>
<path d="M42.4799 19.5537C42.9599 16.8511 43.0399 14.6255 44.2399 15.0229C44.3999 13.9896 44.6399 13.5127 44.7999 13.1152H44.4799C43.7599 13.1152 43.1199 14.0691 43.1199 14.0691L43.2799 13.1947H41.6799L40.6399 19.5537H42.4799Z" fill="white"/>
</svg>
