<svg width="108" height="31" viewBox="0 0 108 31" fill="none" xmlns="http://www.w3.org/2000/svg">
<path fill-rule="evenodd" clip-rule="evenodd" d="M4.15238 11.7394C3.92381 12.3104 3.80952 12.9194 3.65714 13.5284C3.27619 15.3555 2.97143 17.2968 2.55238 19.1239C1.71428 19.1239 0.838095 19.1239 0 19.1239C0.952381 12.9574 2.70476 6.94326 3.46666 0.320039C4.30476 0.320039 5.14285 0.320039 5.94285 0.320039C5.82857 0.929071 5.67619 1.50004 5.6 2.10907C5.6 2.14714 5.52381 2.1852 5.52381 2.26133C6.66667 0.776812 8.41905 -0.250926 11.2 0.0535893C13.9429 0.320041 15.4286 2.48971 15.5429 5.04003C15.8095 9.91229 13.219 14.3278 7.88571 13.9471C6.13333 13.8329 4.8 13.1858 4.15238 11.7394ZM7.73333 2.48972C5.48572 3.63165 3.31428 8.88455 5.86666 11.1303C7.54285 12.6149 10.1714 11.8155 11.2762 10.4452C12.5333 8.88454 13.6762 4.39294 11.7714 2.79423C11.1238 2.26133 10.0952 2.07101 9.14286 2.1852C8.45714 2.22326 8.11429 2.29939 7.73333 2.48972Z" fill="#030000"/>
<path fill-rule="evenodd" clip-rule="evenodd" d="M27.3142 13.6811C26.5142 13.6811 25.7142 13.6811 24.8761 13.6811C24.9904 12.9198 25.1428 12.1966 25.2951 11.4734C24.5713 12.5392 23.3142 13.7573 21.4856 13.9476C18.857 14.214 16.457 12.8818 16.2285 10.7121C16.1523 9.98888 16.1904 8.80888 16.7999 7.89534C18.3237 5.49727 22.2856 5.34502 26.2094 5.45921C27.3904 1.11986 21.0666 1.76696 18.8951 3.17534C19.0094 2.33792 19.1999 1.53857 19.3142 0.70115C23.238 -0.516913 28.5332 -0.212395 28.838 4.01276C28.9523 5.6876 28.457 7.32437 28.1523 8.92307C27.8475 10.4837 27.5427 12.0063 27.3142 13.6811ZM19.0094 10.2173C19.0856 11.3211 20.3046 11.9302 21.2951 11.9302C23.9999 11.9682 25.2951 9.60823 25.7142 7.2863C22.6666 7.13404 18.8189 7.51469 19.0094 10.2173Z" fill="#030000"/>
<path fill-rule="evenodd" clip-rule="evenodd" d="M33.1811 0.357422C33.7525 3.89742 34.4382 7.32322 34.9715 10.9393C36.9906 7.47548 38.8572 3.85935 40.8382 0.357422C41.7525 0.357422 42.6668 0.357422 43.6191 0.357422C41.181 4.7729 38.3239 9.60709 35.5811 14.251C34.743 15.6974 33.9049 17.6387 32.6858 18.5903C31.6192 19.4277 29.562 19.618 27.8477 19.2755C27.8858 18.5142 28.1525 17.9432 28.1906 17.22C28.5334 17.1819 28.9525 17.4103 29.3715 17.4103C31.2382 17.4103 32.2668 15.6974 32.9525 14.3651C32.1525 9.75935 31.2763 5.19161 30.4763 0.547744C30.4001 0.471615 30.4382 0.433551 30.4763 0.357422C31.3906 0.357422 32.3049 0.357422 33.1811 0.357422Z" fill="#030000"/>
<path fill-rule="evenodd" clip-rule="evenodd" d="M44.7239 21.4838C44.1525 24.7193 43.4287 27.7644 42.8573 30.9999C41.0668 30.9999 39.2763 30.9999 37.4478 30.9999C38.2858 27.0412 39.0097 23.1206 39.8097 19.1999C40.6097 15.3173 41.562 11.4348 42.0192 7.32381C43.4668 7.20961 45.4097 7.20961 46.8573 7.32381C46.8192 8.23735 46.5906 8.99864 46.5144 9.87413C47.9239 8.46574 49.4478 6.60058 52.6858 6.9051C55.7716 7.20961 57.4858 9.798 57.7144 13.0715C58.1335 18.7051 55.3906 24.2244 50.4382 24.6051C47.3525 24.8335 45.9049 23.4251 44.7239 21.4838ZM46.8954 13.0715C45.6382 14.8606 45.2192 18.2864 46.8192 19.6186C47.8097 20.456 49.6382 20.0373 50.4763 19.3522C51.543 18.4767 52.3049 16.8019 52.2668 14.7083C52.2287 12.8051 51.3906 11.2064 49.3716 11.4728C48.1906 11.6251 47.4668 12.2341 46.8954 13.0715Z" fill="#009651"/>
<path fill-rule="evenodd" clip-rule="evenodd" d="M72.5332 24.2633C71.1237 24.2253 69.5237 24.3395 68.2285 24.1872C68.3808 23.4259 68.3808 22.4743 68.4951 21.713C68.0761 22.1317 67.7713 22.7408 67.238 23.2356C65.4856 24.8343 61.5618 25.1769 59.6189 23.5782C57.5237 21.8272 57.8665 17.6401 59.6189 15.8511C61.638 13.7575 65.4475 13.2247 69.3713 13.6434C69.7523 12.0447 68.6856 11.055 67.3523 10.8647C65.4094 10.5982 62.8189 11.4356 61.6761 12.1208C61.9047 10.7505 61.9808 9.26594 62.2475 7.89562C63.6189 7.40079 64.9142 7.02014 66.5523 6.94401C71.0856 6.6395 74.2094 8.16207 74.5142 12.0446C74.6665 14.1001 74.057 16.2317 73.5999 18.2492C73.1808 20.2285 72.8761 22.2459 72.5332 24.2633ZM67.0856 16.6505C65.4475 16.6885 63.657 17.2214 63.2761 18.4395C62.9713 19.5053 63.7332 20.495 64.5332 20.6472C67.0475 21.1801 68.7618 18.7059 68.9523 16.7266C68.3808 16.6124 67.5427 16.6505 67.0856 16.6505Z" fill="#009651"/>
<path fill-rule="evenodd" clip-rule="evenodd" d="M89.1431 7.89467C88.8764 9.26499 88.3812 10.4069 88.1145 11.7772C86.7812 11.3205 85.1812 10.6353 83.0859 10.8637C82.2478 10.9779 81.4097 11.3966 81.4097 12.234C81.4478 13.2618 83.0097 13.6424 83.9621 14.023C85.2954 14.594 86.8954 15.3553 87.5431 16.4972C88.6478 18.4766 87.5431 21.3695 86.3621 22.5876C85.3716 23.6153 83.505 24.4527 81.6002 24.605C79.124 24.7953 76.5335 24.3385 74.4002 23.7675C74.705 22.3592 75.0478 21.065 75.4288 19.7708C76.8383 20.3417 78.4383 20.8747 80.6097 20.6843C81.6383 20.5701 82.7812 20.2276 82.6288 19.0095C82.5145 18.0198 81.0288 17.6772 79.924 17.2205C77.8669 16.383 76.3431 15.3172 76.3431 12.5385C76.3431 6.82886 84.2669 5.87725 89.1431 7.89467Z" fill="#009651"/>
<path fill-rule="evenodd" clip-rule="evenodd" d="M102.628 7.89463C102.324 9.22688 101.905 10.483 101.524 11.7772C100.267 11.2824 98.6285 10.6353 96.5333 10.8637C95.6952 10.9398 94.8571 11.3585 94.8571 12.234C94.8952 13.2998 96.7999 13.8707 97.6761 14.2514C99.4666 15.0127 101.181 15.8501 101.409 17.9056C101.638 19.923 100.8 21.5598 99.619 22.6636C98.5142 23.7294 96.8761 24.4527 95.0475 24.6049C92.5332 24.7952 90.0952 24.3385 87.8475 23.7675C88.0761 22.3211 88.5332 21.1411 88.7999 19.7707C89.8285 20.0753 90.819 20.5701 92.038 20.6843C93.7523 20.8365 96.0761 20.7224 96.038 19.2378C95.9999 17.6391 92.6856 17.2966 91.3904 16.2688C89.9809 15.1649 89.1047 12.4624 90.2094 10.2546C92.038 6.82882 98.3237 6.06753 102.628 7.89463Z" fill="#009651"/>
<path d="M104.648 9.64536H103.962L104 9.37891H105.676L105.638 9.64536H104.952L104.571 11.7389H104.267L104.648 9.64536Z" fill="#009651"/>
<path d="M107.467 11.7389L107.619 10.4828C107.657 10.2544 107.695 9.91181 107.733 9.68342C107.619 9.91181 107.505 10.2163 107.352 10.4447L106.667 11.7389H106.438L106.247 10.4828C106.209 10.2163 106.171 9.94987 106.171 9.68342C106.133 9.91181 106.057 10.2544 105.981 10.4828L105.676 11.7389H105.409L106.019 9.37891H106.4L106.59 10.7112C106.628 10.9015 106.628 11.1299 106.628 11.3202C106.705 11.1299 106.819 10.9396 106.895 10.7492L107.619 9.37891H108L107.695 11.7389H107.467Z" fill="#009651"/>
</svg>
