<svg width="126" height="31" viewBox="0 0 126 31" fill="none" xmlns="http://www.w3.org/2000/svg">
<path d="M47.9846 13.2855C47.6582 15.7458 45.6996 15.7458 43.9043 15.7458H42.925L43.741 10.9892C43.741 10.6611 44.0675 10.4971 44.3939 10.4971H44.8836C46.1893 10.4971 47.3317 10.4971 47.9846 11.1532C47.9846 11.8093 47.9846 12.4654 47.9846 13.2855ZM47.1685 6.72461H40.1504C39.6607 6.72461 39.3343 7.05265 39.1711 7.54472L36.3965 25.587C36.3965 25.9151 36.5597 26.2431 37.0493 26.2431H40.3136C40.8032 26.2431 41.1296 25.9151 41.2929 25.423L42.1089 20.5024C42.1089 20.0103 42.5986 19.6823 43.0882 19.6823H45.3732C49.9431 19.6823 52.5545 17.386 53.3706 12.9574C53.697 10.9892 53.3706 9.51297 52.5545 8.36482C51.2488 7.38069 49.4535 6.72461 47.1685 6.72461Z" fill="#263577"/>
<path d="M63.3266 19.8459C63.0002 21.8142 61.5313 23.1263 59.5727 23.1263C58.5935 23.1263 57.7774 22.7983 57.2878 22.1422C56.7981 21.4861 56.6349 20.666 56.7981 19.8459C57.1245 17.8777 58.5935 16.5655 60.552 16.5655C61.5313 16.5655 62.3474 16.8935 62.837 17.5496C63.1634 18.0417 63.4898 18.8618 63.3266 19.8459ZM67.8966 13.2851H64.6323C64.3059 13.2851 64.1427 13.4491 63.9795 13.7771L63.8163 14.7613L63.6531 14.4332C63.0002 13.4491 61.3681 12.957 59.736 12.957C55.9821 12.957 52.881 15.7454 52.2282 19.6819C51.9018 21.6502 52.3914 23.4544 53.5339 24.7666C54.5131 25.9147 55.9821 26.4068 57.7774 26.4068C60.7152 26.4068 62.3473 24.4385 62.3473 24.4385L62.1842 25.4226C62.1842 25.7507 62.3474 26.0787 62.837 26.0787H65.7748C66.2644 26.0787 66.5909 25.7507 66.7541 25.2586L68.5494 13.7771C68.5494 13.6131 68.3862 13.2851 67.8966 13.2851Z" fill="#263577"/>
<path d="M85.6865 13.2852H82.2591C81.9326 13.2852 81.6062 13.4492 81.443 13.7772L76.8731 20.6661L74.9145 14.1053C74.7513 13.6132 74.4249 13.4492 73.9352 13.4492H70.671C70.3445 13.4492 70.0181 13.7772 70.1814 14.2693L73.9352 25.0947L70.5077 30.0153C70.1813 30.3434 70.5078 30.9994 70.9974 30.9994H74.4249C74.7513 30.9994 75.0777 30.8354 75.241 30.5074L86.3394 14.2693C86.5026 13.7772 86.1762 13.2852 85.6865 13.2852Z" fill="#263577"/>
<path d="M97.601 13.2855C97.2746 15.7458 95.3161 15.7458 93.5207 15.7458H92.5414L93.3575 10.9892C93.3575 10.6611 93.684 10.4971 94.0104 10.4971H94.5C95.8057 10.4971 96.9482 10.4971 97.601 11.1532C97.7642 11.8093 97.7642 12.4654 97.601 13.2855ZM96.785 6.72461H89.7669C89.2772 6.72461 88.9508 7.05265 88.7876 7.54472L86.0129 25.587C86.0129 25.9151 86.1762 26.2431 86.6658 26.2431H90.2565C90.5829 26.2431 90.9093 26.0791 90.9093 25.587L91.7254 20.5024C91.7254 20.0103 92.215 19.6823 92.7047 19.6823H94.9896C99.5596 19.6823 102.171 17.386 102.987 12.9574C103.314 10.9892 102.987 9.51297 102.171 8.36482C101.029 7.38069 99.2332 6.72461 96.785 6.72461Z" fill="#2199D6"/>
<path d="M113.106 19.8459C112.78 21.8142 111.311 23.1263 109.353 23.1263C108.373 23.1263 107.557 22.7983 107.068 22.1422C106.578 21.4861 106.415 20.666 106.578 19.8459C106.904 17.8777 108.373 16.5655 110.332 16.5655C111.311 16.5655 112.127 16.8935 112.617 17.5496C112.943 18.0417 113.27 18.8618 113.106 19.8459ZM117.676 13.2851H114.412C114.086 13.2851 113.922 13.4491 113.759 13.7771L113.596 14.7613L113.433 14.4332C112.78 13.4491 111.148 12.957 109.516 12.957C105.762 12.957 102.661 15.7454 102.008 19.6819C101.682 21.6502 102.171 23.4544 103.314 24.7666C104.293 25.9147 105.762 26.4068 107.557 26.4068C110.495 26.4068 112.127 24.4385 112.127 24.4385L111.964 25.4226C111.964 25.7507 112.127 26.0787 112.617 26.0787H115.555C116.044 26.0787 116.371 25.7507 116.534 25.2586L118.329 13.7771C118.329 13.6131 118.003 13.2851 117.676 13.2851Z" fill="#2199D6"/>
<path d="M121.593 7.21667L118.655 25.587C118.655 25.9151 118.819 26.2431 119.308 26.2431H122.246C122.736 26.2431 123.062 25.9151 123.225 25.423L126 7.3807C126 7.05265 125.837 6.72461 125.347 6.72461H122.083C121.92 6.72461 121.756 7.05265 121.593 7.21667Z" fill="#2199D6"/>
<path d="M7.34455 29.6881L7.83417 26.2436H6.69168H0.979248L4.89636 1.14839C4.89636 1.14839 4.89635 0.984375 5.05956 0.984375H5.22278H14.8523C17.9533 0.984375 20.2383 1.64046 21.3808 2.95263C21.8704 3.60871 22.1969 4.2648 22.3601 4.92089C22.5233 5.74099 22.5233 6.56109 22.3601 7.70924V8.36533L22.8497 8.69337C23.3394 8.85739 23.6658 9.18543 23.9922 9.51348C24.4819 10.0055 24.8083 10.6616 24.8083 11.4817C24.9715 12.3018 24.9715 13.286 24.6451 14.4341C24.3186 15.7463 23.9922 16.7304 23.5026 17.7145C23.0129 18.5346 22.3601 19.1907 21.7072 19.8468C21.0544 20.3389 20.0751 20.6669 19.259 20.9949C18.2798 21.159 17.3005 21.323 16.158 21.323H15.342C14.8523 21.323 14.3627 21.487 13.873 21.8151C13.5466 22.1431 13.2202 22.6352 13.057 23.1272V23.4553L12.0777 29.5241V29.6881V29.8521C12.0777 29.8521 12.0777 29.8521 11.9145 29.8521H7.34455V29.6881Z" fill="#263577"/>
<path d="M23.5025 7.70898C23.5025 7.87301 23.5025 8.03703 23.3393 8.20105C22.0336 14.7619 17.7901 16.8942 12.2409 16.8942H9.46626C8.81341 16.8942 8.16058 17.3862 8.16058 18.0423L6.69165 27.2275L6.36523 29.8518C6.36523 30.3439 6.69165 30.6719 7.01807 30.6719H12.0777C12.7305 30.6719 13.2202 30.1799 13.2202 29.6878V29.3598L14.1994 23.455V23.127C14.3627 22.4709 14.8523 22.1428 15.3419 22.1428H16.158C21.0544 22.1428 24.8082 20.1746 25.7875 14.4339C26.2771 11.9735 25.9507 10.0053 24.8082 8.69311C24.4818 8.36507 23.9922 8.03703 23.5025 7.70898Z" fill="#2199D6"/>
<path d="M22.1969 7.21667C22.0337 7.21667 21.8705 7.05265 21.5441 7.05265C21.3808 7.05265 21.0544 6.88863 20.8912 6.88863C20.0751 6.72461 19.2591 6.72461 18.443 6.72461H10.9353C10.772 6.72461 10.6088 6.72461 10.4456 6.88863C10.1192 7.05265 9.79277 7.38069 9.79277 7.70873L8.16064 17.8781V18.2061C8.32386 17.55 8.81347 17.0579 9.46632 17.0579H12.241C17.7902 17.0579 22.0337 14.7616 23.3394 8.36482C23.3394 8.2008 23.3394 8.03678 23.5026 7.87276C23.1762 7.70874 22.8497 7.54472 22.5233 7.3807C22.3601 7.21668 22.1969 7.21667 22.1969 7.21667Z" fill="#252C5E"/>
<path d="M9.79275 7.70899C9.79275 7.38095 10.1192 7.0529 10.4456 6.88888C10.6088 6.88888 10.772 6.72486 10.9352 6.72486H18.443C19.2591 6.72486 20.2383 6.72486 20.8912 6.88888C21.0544 6.88888 21.3808 6.88889 21.544 7.05291C21.7073 7.05291 21.8705 7.21693 22.1969 7.21693C22.3601 7.21693 22.3601 7.21693 22.5233 7.38095C22.8497 7.54497 23.1762 7.70899 23.5026 7.87301C23.829 5.4127 23.5026 3.77248 22.1969 2.29629C20.728 0.656081 18.1166 0 14.8523 0H5.22279C4.56994 0 3.91709 0.492058 3.91709 1.14814L0 26.4074C0 26.8995 0.326425 27.3915 0.816062 27.3915H6.6917L8.16062 17.8783L9.79275 7.70899Z" fill="#263577"/>
</svg>
