<svg width="30" height="31" viewBox="0 0 30 31" fill="none" xmlns="http://www.w3.org/2000/svg">
<path d="M23.5739 19.4917C24.0832 19.7124 24.3015 20.448 24.3015 20.8157C24.3743 21.4042 24.2288 21.6984 24.0105 21.6984C23.7922 21.6984 23.5012 21.4777 23.2101 20.9628C22.9191 20.448 22.7736 19.9331 22.9191 19.6389C23.1374 19.4917 23.3556 19.4182 23.5739 19.4917Z" fill="#F28A1A"/>
<path d="M20.5908 21.7725C20.8819 21.7725 21.2457 21.9196 21.6095 22.2138C22.1915 22.7287 22.4098 23.3171 22.1188 23.7584C21.9733 23.9791 21.6095 24.1262 21.3184 24.1262C20.9546 24.1262 20.5908 23.9791 20.3726 23.7584C19.7905 23.2436 19.645 22.508 20.0088 22.0667C20.0815 21.9196 20.2998 21.7725 20.5908 21.7725Z" fill="#F28A1A"/>
<path d="M13.6787 27.5831C6.11177 27.5831 0 21.4045 0 13.8283C0 6.25217 6.11177 0 13.6787 0C21.2457 0 27.3575 6.17862 27.3575 13.8283C27.3575 16.4028 26.6299 18.8301 25.4657 20.8896C25.393 20.9632 25.3202 20.9632 25.3202 20.8161C24.8109 17.4325 22.7736 15.5937 19.8633 15.0052C19.5722 14.9317 19.5722 14.7845 19.936 14.7845C20.8819 14.711 22.1188 14.711 22.8464 14.8581C22.9191 14.4903 22.9191 14.1226 22.9191 13.8283C22.9191 8.8266 18.8446 4.70752 13.897 4.70752C8.94938 4.70752 4.87487 8.8266 4.87487 13.8283C4.87487 18.8301 8.94938 22.9491 13.897 22.9491H14.3336C14.188 22.14 14.1153 21.3309 14.188 20.4483C14.188 19.8598 14.3336 19.7863 14.5518 20.2276C15.7887 22.4343 17.6077 24.3467 21.1002 25.1558C23.9378 25.8178 26.7754 26.5533 29.904 30.4518C30.1951 30.8195 29.7585 31.1873 29.4675 30.8931C26.3388 28.098 23.5012 27.1418 20.8819 27.1418C17.6077 27.2153 15.6432 27.5831 13.6787 27.5831Z" fill="#F28A1A"/>
</svg>
