<svg width="50" height="31" viewBox="0 0 50 31" fill="none" xmlns="http://www.w3.org/2000/svg">
<path d="M49.9999 29.1763C49.9999 30.184 49.17 31 48.1451 31H1.85442C0.830195 31 0 30.184 0 29.1763V1.82364C0 0.816572 0.830195 0 1.85442 0H48.1452C49.1701 0 50 0.816572 50 1.82364V29.1763H49.9999Z" fill="#21246E"/>
<path d="M19.0039 8.97658L13.4407 22.0294H9.80951L7.07375 11.6136C6.90529 10.9712 6.76133 10.7376 6.25634 10.4648C5.42917 10.025 4.06841 9.61245 2.86694 9.35555L2.95098 8.97668H8.79299C9.53808 8.97668 10.2079 9.46534 10.3764 10.3077L11.8229 17.8624L15.3959 8.97668H19.0039V8.97658ZM33.2272 17.7657C33.2433 14.3226 28.3817 14.1352 28.4167 12.5949C28.4262 12.1247 28.8794 11.6272 29.872 11.5015C30.3649 11.437 31.7214 11.3898 33.2588 12.0838L33.8614 9.31716C33.0342 9.02197 31.9709 8.73926 30.6494 8.73926C27.2553 8.73926 24.8659 10.5143 24.8457 13.0542C24.8235 14.9324 26.5505 15.9804 27.8531 16.606C29.1908 17.246 29.638 17.6547 29.6333 18.2286C29.6245 19.1047 28.566 19.4876 27.5788 19.5048C25.8518 19.5313 24.8501 19.0459 24.0502 18.6796L23.4285 21.5414C24.2297 21.9031 25.7132 22.2172 27.2486 22.2357C30.8558 22.2356 33.2157 20.4794 33.2272 17.7657ZM42.1903 22.0293H45.3672L42.5951 8.97649H39.6623C39.0033 8.97649 38.4477 9.3544 38.2002 9.93326L33.0502 22.0292H36.6548L37.3703 20.0798H41.7765L42.1903 22.0293ZM38.3582 17.4047L40.1666 12.5036L41.2069 17.4047H38.3582ZM23.9116 8.97658L21.0702 22.0293H17.6355L20.4775 8.97649H23.9116V8.97658Z" fill="white"/>
</svg>
