<svg width="31" height="31" viewBox="0 0 31 31" fill="none" xmlns="http://www.w3.org/2000/svg">
<path d="M19.6333 14.901L16.3119 11.2319L12.6214 14.5266L15.9429 18.2705L19.6333 14.901Z" fill="#137ABE"/>
<path d="M9.96429 8.23671L13.2857 11.9058L16.9762 8.61111L13.6548 4.94203L9.96429 8.23671Z" fill="#137ABE"/>
<path d="M22.2167 21.2657L18.8952 17.5966L15.2048 20.9662L18.5262 24.6353L22.2167 21.2657Z" fill="#137ABE"/>
<path d="M18.3786 27.4058L12.3262 20.5918L14.0238 19.0942L9.74286 14.3019L11.4405 12.8043L7.15952 8.01208L13.8762 1.94686L16.0167 4.26812L19.7071 1.04831L21.8476 3.29469L23.25 2.02174C22.9548 1.87198 22.5857 1.64734 22.2905 1.49758C20.15 0.599034 17.8619 0 15.4262 0C6.93809 0 0 6.96377 0 15.5C0 24.0362 6.93809 31 15.5 31C18.3048 31 20.8881 30.2512 23.1024 28.9783C23.8405 28.529 24.5048 28.0797 25.169 27.6304L22.069 24.1111L18.3786 27.4058Z" fill="#137ABE"/>
<path d="M16.7548 6.43961L19.1905 9.21014L21.9952 6.73913L19.4857 3.9686L16.7548 6.43961Z" fill="#137ABE"/>
<path d="M24.5048 12.2802L21.9952 9.50966L19.2643 12.0556L21.7738 14.7512L24.5048 12.2802Z" fill="#137ABE"/>
<path d="M26.8667 18.1208L24.3571 15.3502L21.6262 17.8213L24.1357 20.6667L26.8667 18.1208Z" fill="#137ABE"/>
<path d="M27.0143 8.98551L25.169 10.6328L26.8667 12.5048L28.6381 10.8575L27.0143 8.98551Z" fill="#137ABE"/>
<path d="M27.531 16.099L29.1548 17.971L31 16.3237L29.3024 14.4517L27.531 16.099Z" fill="#137ABE"/>
<path d="M22.8071 5.16667L24.5048 7.03865L26.2762 5.3913L24.6524 3.51932L22.8071 5.16667Z" fill="#137ABE"/>
<path d="M24.0619 23.4372L26.5714 26.2077L29.3024 23.7367L26.7929 20.9662L24.0619 23.4372Z" fill="#137ABE"/>
</svg>
