<svg width="114" height="46" viewBox="0 0 114 46" fill="none" xmlns="http://www.w3.org/2000/svg">
<path d="M60.7486 25.7035L51.1886 13.8685H51.1161V25.7035H45.046V0.000732422H51.1161V10.456H51.2251L60.4213 0.000732422H68.2001L57.1136 11.8357L68.8546 25.7035H60.7486Z" fill="#FC3815"/>
<path d="M70.8899 25.7035V0.000732422H88.1921V5.22805H76.8874V10.0927H87.5742V15.0662H76.8874V20.4025H88.8466V25.7028H70.8899V25.7035Z" fill="#FC3815"/>
<path d="M27.4364 32.0972H32.1532C32.741 32.0972 33.2876 32.1677 33.7926 32.308C34.2976 32.4483 34.732 32.656 35.0965 32.9303C35.4609 33.2052 35.7484 33.5557 35.9595 33.9832C36.1706 34.4112 36.2758 34.9117 36.2758 35.4866C36.2758 36.2652 36.0583 36.9009 35.6239 37.3918C35.1895 37.8833 34.6268 38.2441 33.937 38.4735V38.512C34.3457 38.5376 34.7294 38.6427 35.0875 38.8279C35.4449 39.0131 35.7554 39.256 36.0172 39.5552C36.279 39.8552 36.4869 40.2031 36.6403 40.5992C36.7936 40.9952 36.8706 41.4226 36.8706 41.8821C36.8706 42.4948 36.7462 43.0343 36.4966 43.5002C36.2476 43.9661 35.9049 44.359 35.4705 44.6781C35.0361 44.9972 34.5312 45.2401 33.9556 45.4054C33.3807 45.5714 32.7602 45.6541 32.0961 45.6541H27.437V32.0972H27.4364ZM29.2773 37.7269H31.7887C32.1339 37.7269 32.4599 37.6917 32.7666 37.6218C33.0733 37.552 33.3415 37.4334 33.5719 37.2674C33.8022 37.1015 33.9838 36.8913 34.1186 36.6356C34.2527 36.3805 34.3201 36.0678 34.3201 35.6974C34.3201 35.161 34.1475 34.6951 33.8022 34.2997C33.457 33.9043 32.9136 33.7063 32.1724 33.7063H29.2773V37.7269ZM29.2773 44.0456H31.9806C32.2616 44.0456 32.5716 44.0168 32.9103 43.9597C33.2491 43.902 33.5655 43.7873 33.8594 43.6149C34.1532 43.4426 34.4022 43.2099 34.6069 42.9158C34.8109 42.6223 34.9136 42.2333 34.9136 41.7475C34.9136 40.9433 34.6512 40.3403 34.1276 39.9378C33.6033 39.5354 32.8937 39.3348 31.9992 39.3348H29.2767V44.0456H29.2773Z" fill="#16304C"/>
<path d="M42.5641 32.0972H44.405V43.9309H50.6361V45.6541H42.5641V32.0972Z" fill="#16304C"/>
<path d="M61.7944 45.9988C60.7587 45.9988 59.8065 45.8168 58.9377 45.4528C58.0683 45.0888 57.324 44.5883 56.7041 43.9494C56.0843 43.3111 55.5985 42.5582 55.2469 41.6898C54.8953 40.8221 54.7195 39.8833 54.7195 38.8753C54.7195 37.8672 54.8953 36.9284 55.2469 36.0607C55.5985 35.193 56.0836 34.4394 56.7041 33.8011C57.324 33.1628 58.0683 32.6617 58.9377 32.2977C59.8065 31.9337 60.7594 31.7517 61.7944 31.7517C62.83 31.7517 63.7816 31.9337 64.651 32.2977C65.5198 32.6617 66.2648 33.1628 66.8846 33.8011C67.5044 34.4394 67.9902 35.1924 68.3418 36.0607C68.6934 36.929 68.8692 37.8672 68.8692 38.8753C68.8692 39.8839 68.6934 40.8221 68.3418 41.6898C67.9902 42.5582 67.5044 43.3111 66.8846 43.9494C66.2648 44.5877 65.5198 45.0888 64.651 45.4528C63.7816 45.8168 62.8293 45.9988 61.7944 45.9988ZM61.7944 44.2756C62.574 44.2756 63.2772 44.1321 63.9035 43.845C64.5297 43.5579 65.0661 43.1721 65.514 42.6863C65.9613 42.2012 66.3065 41.6302 66.5496 40.9727C66.7922 40.3152 66.9141 39.6167 66.9141 38.8759C66.9141 38.1357 66.7922 37.4366 66.5496 36.7791C66.3065 36.1216 65.9613 35.5506 65.514 35.0655C65.0661 34.5804 64.5297 34.1939 63.9035 33.9068C63.2772 33.6198 62.574 33.4762 61.7944 33.4762C61.0147 33.4762 60.3115 33.6198 59.6852 33.9068C59.059 34.1939 58.5219 34.5804 58.0747 35.0655C57.6268 35.5506 57.2822 36.1222 57.0391 36.7791C56.7959 37.4366 56.6746 38.1357 56.6746 38.8759C56.6746 39.6167 56.7959 40.3152 57.0391 40.9727C57.2816 41.6302 57.6268 42.2012 58.0747 42.6863C58.5219 43.1714 59.059 43.5579 59.6852 43.845C60.3115 44.1321 61.0147 44.2756 61.7944 44.2756Z" fill="#16304C"/>
<path d="M86.1246 38.0717V44.7543C85.7922 44.9588 85.4149 45.1376 84.9933 45.2907C84.5718 45.4439 84.1335 45.5753 83.6799 45.6836C83.2262 45.7919 82.7662 45.872 82.2997 45.9232C81.8332 45.9739 81.3949 46.0001 80.9862 46.0001C79.8357 46.0001 78.8104 45.8085 77.9088 45.4259C77.008 45.0427 76.247 44.5262 75.6271 43.8751C75.0073 43.224 74.5344 42.4678 74.2084 41.6059C73.8825 40.744 73.7195 39.8346 73.7195 38.8772C73.7195 37.8692 73.8953 36.9304 74.2469 36.0627C74.5985 35.195 75.0836 34.4413 75.7041 33.8031C76.3239 33.1648 77.0683 32.6637 77.9377 32.2997C78.8065 31.9357 79.7594 31.7537 80.7943 31.7537C82.0469 31.7537 83.0697 31.91 83.8621 32.2228C84.6545 32.5355 85.3193 32.9668 85.8564 33.5153L84.5525 34.913C83.9898 34.3766 83.3956 34.0036 82.7694 33.7928C82.1431 33.582 81.4848 33.4769 80.7943 33.4769C80.0147 33.4769 79.3115 33.6204 78.6852 33.9075C78.059 34.1946 77.5219 34.581 77.0747 35.0662C76.6268 35.5513 76.2822 36.1229 76.0391 36.7798C75.7959 37.4373 75.6746 38.1364 75.6746 38.8766C75.6746 39.6424 75.8087 40.3543 76.0769 41.0118C76.3451 41.6693 76.716 42.2403 77.1889 42.7254C77.6618 43.2106 78.2175 43.5906 78.8572 43.8649C79.4963 44.1398 80.1925 44.2763 80.9471 44.2763C81.599 44.2763 82.2156 44.216 82.797 44.0943C83.3783 43.9732 83.8736 43.7976 84.283 43.5675V39.7949H81.273V38.0717H86.1246Z" fill="#16304C"/>
<path d="M107.275 14.7034C108.948 14.1952 110.256 13.348 111.201 12.1618C112.146 10.9763 112.619 9.51196 112.619 7.76888C112.619 6.29303 112.339 5.05878 111.782 4.06612C111.225 3.0741 110.479 2.27562 109.547 1.67002C108.614 1.06507 107.56 0.635071 106.384 0.381299C105.209 0.126887 104.003 0 102.767 0H92.9531V25.7027H99.0232V15.5019H101.142L106.729 25.7034H113.999L107.275 14.7034ZM105.282 9.51324C104.472 10.4719 103.681 11.4678 103.144 12.6091C102.983 12.9334 102.887 13.2833 102.742 13.614C102.717 13.6108 102.666 13.605 102.64 13.6018C102.536 13.2967 102.446 12.9859 102.315 12.6899C101.903 11.7344 101.289 10.884 100.645 10.0721C100.029 9.29216 99.3767 8.54045 98.7755 7.74902C98.3603 7.2011 98.0068 6.58461 97.8849 5.90084C97.8534 5.6586 97.8579 5.4138 97.8727 5.17092C97.9484 4.5884 98.2942 4.05651 98.7723 3.71943C99.3222 3.3157 100.049 3.19843 100.71 3.33492C101.346 3.45284 101.918 3.84054 102.289 4.36667C102.439 4.56854 102.546 4.79732 102.66 5.02097C102.673 5.03122 102.699 5.05173 102.711 5.06198C102.933 4.48843 103.341 3.9905 103.857 3.65534C104.342 3.34069 104.941 3.24072 105.51 3.30224C106.081 3.36825 106.641 3.62714 107.016 4.06932C107.383 4.47497 107.577 5.02866 107.54 5.57465C107.498 6.31162 107.167 6.99539 106.782 7.61252C106.339 8.28924 105.798 8.89227 105.282 9.51324Z" fill="#FC3815"/>
<path d="M18.7376 4.19383C18.2159 3.18963 17.5017 2.37834 16.5932 1.76185C15.6846 1.14472 14.6175 0.697416 13.3945 0.418651C12.1702 0.140527 10.8555 0.00146484 9.45091 0.00146484H0V25.7042H6.2157V16.0109H8.23947C8.25936 15.9833 8.27925 15.9558 8.29786 15.9276C8.8792 15.1361 9.14164 14.1736 9.42268 13.2482C8.78809 13.6097 8.07713 13.8679 7.33987 13.8827C6.49482 13.9243 5.60998 13.6635 4.99206 13.0701C4.53136 12.6349 4.25609 12.0146 4.23299 11.3828C4.19128 10.5349 4.52494 9.71657 4.97346 9.01293C5.30519 8.4868 5.712 8.01002 6.15089 7.56976C6.85799 6.9097 7.51505 6.19837 8.12654 5.44987C8.74959 4.69176 9.30077 3.8811 9.84553 3.06724C10.2844 3.76575 10.7124 4.47387 11.2283 5.11984C11.9245 6.01765 12.7144 6.84049 13.5652 7.59283C14.1805 8.21829 14.7176 8.94052 15.0359 9.76335C15.2855 10.4189 15.3798 11.1553 15.1854 11.8377C14.9666 12.6574 14.3114 13.3264 13.5184 13.6148C12.466 14.014 11.2668 13.7987 10.3094 13.2514C10.5193 14.1473 10.7483 15.0887 11.3573 15.8077C11.3784 15.8327 11.4009 15.8577 11.4227 15.8827C12.0111 15.8103 12.5905 15.709 13.1584 15.5758C14.3942 15.2855 15.485 14.826 16.4295 14.196C17.3747 13.5667 18.1254 12.7381 18.683 11.7089C19.24 10.6804 19.5191 9.41602 19.5191 7.91517C19.5191 6.43932 19.2586 5.19866 18.7376 4.19383Z" fill="#FC3815"/>
<path fill-rule="evenodd" clip-rule="evenodd" d="M32.4555 19.2347C31.8704 20.1216 31.3185 21.031 30.7949 21.9557C30.7436 21.9435 30.7308 21.8801 30.7019 21.8442C30.1591 20.8804 29.5655 19.9473 28.9406 19.0354C28.6422 20.4875 28.2309 21.9217 27.5238 23.2297C27.0227 24.1474 26.2835 24.8939 25.6348 25.704C26.6293 25.6687 27.6245 25.6969 28.6197 25.6879C31.1331 25.6969 33.6477 25.6694 36.1624 25.7014C35.5438 24.8875 34.7437 24.2243 34.1835 23.3649C33.3365 22.1185 32.8264 20.6881 32.4555 19.2347Z" fill="#FC3815"/>
<path fill-rule="evenodd" clip-rule="evenodd" d="M41.8686 12.8776C41.1493 11.8215 40.0277 11.0871 38.8271 10.6891C37.1569 10.122 35.2801 10.1316 33.6355 10.7821C35.1319 9.51577 36.1425 7.68618 36.4036 5.74444C36.5666 4.52365 36.4274 3.19775 35.7299 2.15255C35.0882 1.12208 33.9615 0.476754 32.7969 0.214652C31.6246 -0.0545003 30.3926 -0.0621929 29.2107 0.148002C27.9845 0.363324 26.7795 0.956741 26.0262 1.97183C25.2414 3.00614 24.9796 4.36088 25.108 5.63486C25.2754 7.30168 26.0005 8.91531 27.1542 10.1355C27.3698 10.3726 27.6528 10.5405 27.8517 10.7942C26.1648 10.2015 24.2789 10.1931 22.5824 10.752C21.3395 11.155 20.1614 11.9228 19.4999 13.0743C18.9789 13.9523 18.8435 15.0225 19.0206 16.0184C19.242 17.334 19.8945 18.6355 21.0148 19.4071C22.2167 20.2633 23.7887 20.3934 25.2042 20.1255C26.431 19.8602 27.6091 19.3078 28.5447 18.4676C27.9409 17.6121 27.312 16.7745 26.6729 15.9466C28.1224 13.9978 29.5289 12.0138 30.7718 9.92719C31.2563 10.7257 31.7362 11.528 32.2547 12.3066C33.0747 13.5601 33.9576 14.7719 34.8848 15.9479C34.2419 16.7393 33.6118 17.5416 33.0337 18.3818C32.9977 18.433 32.9624 18.4856 32.9271 18.5368C34.0577 19.4648 35.5085 19.9916 36.9587 20.1377C38.3517 20.2601 39.8487 19.9422 40.926 19.0124C42.02 18.0876 42.5629 16.6425 42.611 15.2378C42.5783 14.4054 42.3511 13.5627 41.8686 12.8776Z" fill="#FC3815"/>
<path d="M114 37.4211H89.8495V39.1437H114V37.4211Z" fill="#16304C"/>
<path d="M24.1506 37.4211H0V39.1437H24.1506V37.4211Z" fill="#16304C"/>
</svg>
